<svg xmlns="http://www.w3.org/2000/svg" width="28" height="28" viewBox="0 0 28 28">
  <path id="Galery" d="M29,2H7A1,1,0,0,0,6,3V6H3A1,1,0,0,0,2,7V29a1.14,1.14,0,0,0,.07.32v.15a1.12,1.12,0,0,0,.16.22h0a1,1,0,0,0,.27.19h.08A1,1,0,0,0,3,30H25a1,1,0,0,0,.35-.07h.07a.92.92,0,0,0,.28-.19h0a1.24,1.24,0,0,0,.14-.18v-.08a.3.3,0,0,0,0-.08A1,1,0,0,0,26,29h0V26h3a1,1,0,0,0,1-1V3A1,1,0,0,0,29,2ZM7,8H24V25l-5.12-9.5A1,1,0,0,0,18,15h0a1,1,0,0,0-.88.52l-1.6,2.95-2.64-4.94a1.023,1.023,0,0,0-1.77-.04L4,25.39V8Zm5,8,2.62,4.91a.35.35,0,0,0,0,.13L18.33,28H4.77Zm8.6,12-4-7.41L18,18.1,23.33,28ZM28,24H26V7a1,1,0,0,0-1-1H8V4H28Z" transform="translate(-2 -2)" fill="#615f5f"/>
</svg>
