<svg id="_3475768761579090629" data-name="3475768761579090629" xmlns="http://www.w3.org/2000/svg" width="70.048" height="70.048" viewBox="0 0 70.048 70.048">
  <path id="Path_3" data-name="Path 3" d="M69.831,50.387a50.037,50.037,0,0,1-5.256-22.264V2.052A2.052,2.052,0,0,0,62.523,0H10.261A2.046,2.046,0,0,0,8.809.6L.6,8.81A2.052,2.052,0,0,0,0,10.261V68a2.052,2.052,0,0,0,2.052,2.052H54.314a2.052,2.052,0,0,0,1.451-.6l8.208-8.208a2.045,2.045,0,0,0,.6-1.451v-6.43H68a2.052,2.052,0,0,0,1.836-2.97ZM4.1,11.111l4.1-4.1v51.93l-4.1,4.1Zm49.36,54.832H7.007l4.1-4.1H57.569Zm7.007-8.209H12.313V47.166q.681,2.407,1.473,4.787a2.052,2.052,0,0,0,1.947,1.4H60.471ZM17.223,49.252a104.388,104.388,0,0,1-4.91-31.671V4.1H60.471V28.123a54.2,54.2,0,0,0,4.317,21.13Z" fill="#5dba63"/>
  <path id="Path_4" data-name="Path 4" d="M122.052,64.1H157.76a2.052,2.052,0,1,0,0-4.1H122.052a2.052,2.052,0,1,0,0,4.1Z" transform="translate(-103.583 -51.791)" fill="#5dba63"/>
  <path id="Path_5" data-name="Path 5" d="M122.052,124.1H157.76a2.052,2.052,0,1,0,0-4.1H122.052a2.052,2.052,0,1,0,0,4.1Z" transform="translate(-103.583 -103.583)" fill="#5dba63"/>
  <path id="Path_6" data-name="Path 6" d="M159.812,182.052A2.052,2.052,0,0,0,157.76,180H122.052a2.052,2.052,0,1,0,0,4.1H157.76A2.052,2.052,0,0,0,159.812,182.052Z" transform="translate(-103.583 -155.374)" fill="#5dba63"/>
  <path id="Path_7" data-name="Path 7" d="M175.887,244.1a2.052,2.052,0,0,0,0-4.1H143.052a2.052,2.052,0,1,0,0,4.1Z" transform="translate(-121.71 -207.165)" fill="#5dba63"/>
  <path id="Path_8" data-name="Path 8" d="M189.519,300H158.052a2.052,2.052,0,1,0,0,4.1h31.467a2.052,2.052,0,1,0,0-4.1Z" transform="translate(-134.657 -258.956)" fill="#5dba63"/>
</svg>
